<svg width="48" height="48" viewBox="0 0 48 48" fill="none" xmlns="http://www.w3.org/2000/svg">
<path fill-rule="evenodd" clip-rule="evenodd" d="M19.5502 1.45356C22.2028 -0.484524 25.7973 -0.484519 28.4499 1.45357L44.8864 13.4627C47.5362 15.3988 48.6393 18.8241 47.6304 21.9466L41.3522 41.3779C40.3427 44.5025 37.4424 46.6284 34.1584 46.6284H13.8416C10.5576 46.6284 7.65732 44.5024 6.64778 41.3779L0.369557 21.9466C-0.639346 18.824 0.463792 15.3988 3.11357 13.4627L19.5502 1.45356Z" fill="#001926"/>
<path d="M34.5236 8.43835L28.059 21.3675L26.3038 20.2705L30.0745 5.18771L34.5236 8.43835Z" fill="#76FF33"/>
<path d="M28.1967 23.8794C28.3655 23.9849 28.5203 24.1072 28.6596 24.2432C28.8718 24.4504 29.0478 24.6897 29.1822 24.9509C29.357 25.2908 29.4611 25.6677 29.482 26.059C29.4845 26.1076 29.4859 26.1564 29.4859 26.2054V27.4509C29.4837 27.755 29.1631 27.9522 28.8904 27.8159L21.2575 23.9995L21.2572 21.9421C21.2572 21.569 21.5552 21.2654 21.9262 21.2566H23.2135C23.7276 21.2566 24.2313 21.401 24.6672 21.6735L28.1967 23.8794Z" fill="#76FF33"/>
<path d="M16.0034 21.3725L18.0531 20.0058C18.8416 19.48 19.7682 19.1994 20.7159 19.1994H23.2135C23.8262 19.1994 24.4304 19.3167 24.9945 19.5421L26.6734 2.75282C24.8199 1.7167 22.5117 1.83712 20.7639 3.11409L4.32734 15.1233C2.39761 16.5332 1.59013 19.0323 2.32722 21.3137L8.60544 40.7449C9.34253 43.0262 11.4565 44.5708 13.8418 44.5708H34.1585C36.5438 44.5708 38.6578 43.0262 39.3949 40.7449L44.3333 25.4603L33.6001 26.0566L45.6554 21.3684L45.6731 21.3137C46.2208 19.6184 45.9157 17.8029 44.9309 16.4034L31.3583 24.8863C31.4794 25.3099 31.543 25.7533 31.543 26.2054V27.428H32.0697C32.4882 27.428 32.9012 27.5238 33.277 27.708L36.596 29.335C38.739 30.3855 39.7847 32.8509 39.0505 35.1217L37.5814 39.6652C37.0324 41.3632 35.4513 42.5137 33.6667 42.5137H29.9827C29.4071 42.5137 28.8362 42.4101 28.2972 42.208L23.6271 40.4565H21.6835C20.8057 41.7167 19.3499 42.5137 17.7439 42.5137H13.8351C12.3474 42.5137 11.0295 41.5543 10.5724 40.1387L7.96451 32.0626C7.54065 30.7499 8.15751 29.3268 9.4052 28.7387L13.7145 26.7075V23.9994L5.19858 20.069C4.95574 19.9569 4.80022 19.7139 4.80022 19.4464V17.5661C4.80022 17.3064 4.94697 17.0689 5.17927 16.9528L5.86499 16.6099C6.05803 16.5134 6.28526 16.5134 6.47831 16.6099L16.0034 21.3725Z" fill="#76FF33"/>
<path d="M15.7716 26.7423L15.772 27.2818C15.7721 27.3872 15.8324 27.4831 15.9274 27.5288L16.238 27.6782C16.7768 27.9375 17.0856 28.516 17.001 29.108L15.9009 36.8085C15.817 37.3961 15.5447 37.9405 15.1251 38.3602L13.3798 40.1054C13.3018 40.1834 13.304 40.2947 13.3581 40.371C13.5077 40.4266 13.6688 40.4565 13.8351 40.4565H17.7439C18.1531 40.4565 18.5453 40.366 18.8987 40.2018C19.6322 39.861 20.1988 39.203 20.4048 38.379L22.053 31.7875C22.3736 30.4632 21.6729 29.1026 20.4058 28.5958L15.7716 26.7423Z" fill="#76FF33"/>
<path d="M30.8683 40.4565H33.6667C34.559 40.4565 35.3495 39.8813 35.6241 39.0323L37.0931 34.4888C37.5127 33.1912 36.9151 31.7824 35.6906 31.1821L32.3715 29.5551C32.3258 29.5327 32.2779 29.5156 32.2287 29.5038V30.0012C32.2287 30.1051 32.2874 30.2 32.3803 30.2465L32.5363 30.3245C33.1467 30.6297 33.4398 31.3373 33.224 31.9848L30.9597 38.7778C30.8923 38.9798 30.7789 39.1633 30.6284 39.3139L29.837 40.1052C29.7074 40.2348 29.7992 40.4564 29.9825 40.4564H30.8573L30.8683 40.4565Z" fill="#76FF33"/>
<path d="M30.0272 22.7047C30.3054 22.9657 30.5499 23.2575 30.7568 23.573L41.8968 13.8255L39.4857 12.0639L30.0272 22.7047Z" fill="#76FF33"/>
<path d="M24.0002 29.4851L29.6114 31.7296C30.3039 32.0066 30.648 32.7861 30.3862 33.4845L29.1339 36.8238C28.9332 37.359 28.4215 37.7137 27.8498 37.7137H22.6288L24.0002 32.228C24.2253 31.3275 24.2253 30.3855 24.0002 29.4851Z" fill="#76FF33"/>
</svg>
