<svg width="24" height="24" viewBox="0 0 24 24" fill="none" xmlns="http://www.w3.org/2000/svg">
<path fill-rule="evenodd" clip-rule="evenodd" d="M0 3C0 1.34315 1.34315 0 3 0H21C22.6569 0 24 1.34315 24 3V15C24 16.6569 22.6569 18 21 18H15L9 24V18H3C1.34315 18 0 16.6569 0 15V3ZM14.25 9C14.25 10.2426 13.2426 11.25 12 11.25C10.7574 11.25 9.75 10.2426 9.75 9C9.75 7.75736 10.7574 6.75 12 6.75C13.2426 6.75 14.25 7.75736 14.25 9ZM8.25 9C8.25 10.2426 7.24264 11.25 6 11.25C4.75736 11.25 3.75 10.2426 3.75 9C3.75 7.75736 4.75736 6.75 6 6.75C7.24264 6.75 8.25 7.75736 8.25 9ZM18 11.25C19.2426 11.25 20.25 10.2426 20.25 9C20.25 7.75736 19.2426 6.75 18 6.75C16.7574 6.75 15.75 7.75736 15.75 9C15.75 10.2426 16.7574 11.25 18 11.25Z" fill="#001926"/>
</svg>
